# xmcd
#
# Track frame offsets:
#	150
#	10550
#	25422
#	41872
#	67242
#	84775
#	95697
#	109885
#	124217
#	133837
#	157840
#	170642
#
# Disc length: 2466 seconds
# Revision: 4
# Processed by: cddbd v1.5.2PL0 Copyright (c) Steve Scherf et al.
# Submitted via: dBpowerAMP V12.0
#
DISCID=9f09a00c
DTITLE=Little Charlie and the Nightcats - Disturbing the Peace
DYEAR=1988
DGENRE=Blues
TTITLE0=That's My Girl
TTITLE1=Nervous
TTITLE2=My Money's Green
TTITLE3=If This Is Love
TTITLE4=I Ain't Lyin'
TTITLE5=She's Talking
TTITLE6=My Last Meal
TTITLE7=The Booty Song
TTITLE8=Don't Boss Me
TTITLE9=V-8 Ford
TTITLE10=I Feel So Sorry
TTITLE11=Run Me Down
EXTD=
EXTT0=
EXTT1=
EXTT2=
EXTT3=
EXTT4=
EXTT5=
EXTT6=
EXTT7=
EXTT8=
EXTT9=
EXTT10=
EXTT11=
PLAYORDER=
